<?xml version="1.0" encoding="UTF-8" standalone="no"?>
<svg
   class="card"
   face="1B"
   height="3.5in"
   preserveAspectRatio="none"
   viewBox="-120 -168 240 336"
   width="2.5in"
   version="1.1"
   id="svg2"
   sodipodi:docname="placeholder_clubs.svg"
   inkscape:version="1.3.2 (091e20e, 2023-11-25, custom)"
   xmlns:inkscape="http://www.inkscape.org/namespaces/inkscape"
   xmlns:sodipodi="http://sodipodi.sourceforge.net/DTD/sodipodi-0.dtd"
   xmlns="http://www.w3.org/2000/svg"
   xmlns:svg="http://www.w3.org/2000/svg">
  <sodipodi:namedview
     id="namedview2"
     pagecolor="#505050"
     bordercolor="#ffffff"
     borderopacity="1"
     inkscape:showpageshadow="false"
     inkscape:pageopacity="0"
     inkscape:pagecheckerboard="1"
     inkscape:deskcolor="#505050"
     inkscape:document-units="in"
     inkscape:zoom="2.4910714"
     inkscape:cx="71.856631"
     inkscape:cy="154.35125"
     inkscape:current-layer="svg2" />
  <defs
     id="defs1">
    <pattern
       id="B1"
       width="6"
       height="6"
       patternUnits="userSpaceOnUse">
      <path
         d="M3 0L6 3L3 6L0 3Z"
         fill="black"
         id="path1" />
    </pattern>
  </defs>
  <rect
     width="230.39999"
     height="326.39999"
     x="-115.2"
     y="-163.2"
     rx="12"
     ry="12"
     fill="white"
     stroke="#000000"
     id="rect1"
     style="fill:none;stroke:#ffffff;stroke-width:9.6;stroke-dasharray:none;stroke-opacity:1" />
  <g
     id="use2"
     transform="matrix(0.06258838,0,0,0.06258838,0,-0.09419242)"
     style="fill:#ffffff;fill-opacity:1;stroke-width:164.571;stroke-dasharray:none">
    <path
       d="m 30,150 c 5,235 55,250 100,350 H -130 C -85,400 -35,385 -30,150 a 10,10 0 0 0 -20,0 210,210 0 1 1 -74,-201 10,10 0 0 0 14,-14 230,230 0 1 1 220,0 10,10 0 0 0 14,14 210,210 0 1 1 -74,201 10,10 0 0 0 -20,0 z"
       fill="#000000"
       id="path4"
       style="fill:#ffffff;fill-opacity:1;stroke-width:164.571;stroke-dasharray:none" />
  </g>
</svg>
