<?xml version="1.0" encoding="UTF-8" standalone="no"?>
<svg
   id="svg8796"
   version="1.1"
   viewBox="0 0 238.11132 332.59769"
   height="87.999802mm"
   width="63.000286mm"
   xml:space="preserve"
   xmlns="http://www.w3.org/2000/svg"
   xmlns:svg="http://www.w3.org/2000/svg"
   xmlns:rdf="http://www.w3.org/1999/02/22-rdf-syntax-ns#"
   xmlns:cc="http://creativecommons.org/ns#"
   xmlns:dc="http://purl.org/dc/elements/1.1/"><title
     id="title13408">Vector Playing Cards - Numbers &amp; Letters</title><defs
     id="defs8790" /><metadata
     id="metadata8793"><rdf:RDF><cc:Work
         rdf:about=""><dc:format>image/svg+xml</dc:format><dc:type
           rdf:resource="http://purl.org/dc/dcmitype/StillImage" /><dc:title>Vector Playing Cards - Numbers &amp; Letters</dc:title><dc:creator><cc:Agent><dc:title>Chris Aguilar</dc:title></cc:Agent></dc:creator><dc:rights><cc:Agent><dc:title>Copyright 2011,2019</dc:title></cc:Agent></dc:rights><dc:publisher><cc:Agent><dc:title>Chris Aguilar</dc:title></cc:Agent></dc:publisher><dc:description>Vectors Playing Card Numbers &amp; Letters</dc:description><dc:contributor><cc:Agent><dc:title>Chris Aguilar</dc:title></cc:Agent></dc:contributor><dc:date>11/26/2016</dc:date><dc:identifier>52 Vector Poker Standard Playing Card Faces Version 3.0</dc:identifier><cc:license
           rdf:resource="http://creativecommons.org/licenses/by-sa/4.0/" /><dc:source>https://totalnonsense.com/open-source-vector-playing-cards/</dc:source><dc:language>English</dc:language><dc:subject><rdf:Bag><rdf:li>Vectors Playing Card Numbers &amp; Letters</rdf:li></rdf:Bag></dc:subject></cc:Work><cc:License
         rdf:about="http://creativecommons.org/licenses/by-sa/4.0/"><cc:permits
           rdf:resource="http://creativecommons.org/ns#Reproduction" /><cc:permits
           rdf:resource="http://creativecommons.org/ns#Distribution" /><cc:requires
           rdf:resource="http://creativecommons.org/ns#Notice" /><cc:requires
           rdf:resource="http://creativecommons.org/ns#Attribution" /><cc:permits
           rdf:resource="http://creativecommons.org/ns#DerivativeWorks" /><cc:requires
           rdf:resource="http://creativecommons.org/ns#ShareAlike" /></cc:License></rdf:RDF></metadata><g
     id="g20"
     transform="translate(-146.61972,-108.2073)"><path
       id="path1187"
       d="m 925.34185,141.71155 c -5.53195,-9.13583 -11.35193,-18.01511 -18.625,-25.6 7.27307,-7.58489 13.09305,-16.464174 18.625,-25.600004 5.53196,9.13583 11.35194,18.015114 18.62501,25.600004 -7.27307,7.58489 -13.09305,16.46417 -18.62501,25.6 z"
       style="display:inline;fill:#ffffff;fill-opacity:1;stroke:none;stroke-width:1.06667"
       transform="matrix(1.9886894,0,0,1.8454723,-1574.5421,60.22549)" /><path
       id="path19"
       style="display:inline;opacity:1;fill:#ffffff;fill-opacity:1;stroke:none;stroke-width:1.06727;stroke-miterlimit:4;stroke-dasharray:none;stroke-opacity:1"
       d="m 158.01034,108.2073 c -6.30976,0 -11.39062,5.0733 -11.39062,11.37501 v 309.84766 c 0,6.3017 5.08086,11.375 11.39062,11.375 h 215.33007 c 6.30976,0 11.39062,-5.0733 11.39062,-11.375 V 119.58231 c 0,-6.30171 -5.08086,-11.37501 -11.39062,-11.37501 z m 17.08983,18.89649 h 181.15042 c 5.30816,0 9.58198,4.4964 9.58198,10.08204 v 274.63866 c 0,5.58563 -4.27382,10.08203 -9.58198,10.08203 H 175.10017 c -5.30817,0 -9.58209,-4.4964 -9.58209,-10.08203 V 137.18583 c 0,-5.58564 4.27392,-10.08204 9.58209,-10.08204 z" /></g></svg>
