<?xml version="1.0" encoding="UTF-8" standalone="no"?>
<svg
   id="svg8796"
   version="1.1"
   viewBox="0 0 238.11132 332.59769"
   height="87.999802mm"
   width="63.000286mm"
   xml:space="preserve"
   xmlns="http://www.w3.org/2000/svg"
   xmlns:svg="http://www.w3.org/2000/svg"
   xmlns:rdf="http://www.w3.org/1999/02/22-rdf-syntax-ns#"
   xmlns:cc="http://creativecommons.org/ns#"
   xmlns:dc="http://purl.org/dc/elements/1.1/"><title
     id="title13408">Vector Playing Cards - Numbers &amp; Letters</title><defs
     id="defs8790" /><metadata
     id="metadata8793"><rdf:RDF><cc:Work
         rdf:about=""><dc:format>image/svg+xml</dc:format><dc:type
           rdf:resource="http://purl.org/dc/dcmitype/StillImage" /><dc:title>Vector Playing Cards - Numbers &amp; Letters</dc:title><dc:creator><cc:Agent><dc:title>Chris Aguilar</dc:title></cc:Agent></dc:creator><dc:rights><cc:Agent><dc:title>Copyright 2011,2019</dc:title></cc:Agent></dc:rights><dc:publisher><cc:Agent><dc:title>Chris Aguilar</dc:title></cc:Agent></dc:publisher><dc:description>Vectors Playing Card Numbers &amp; Letters</dc:description><dc:contributor><cc:Agent><dc:title>Chris Aguilar</dc:title></cc:Agent></dc:contributor><dc:date>11/26/2016</dc:date><dc:identifier>52 Vector Poker Standard Playing Card Faces Version 3.0</dc:identifier><cc:license
           rdf:resource="http://creativecommons.org/licenses/by-sa/4.0/" /><dc:source>https://totalnonsense.com/open-source-vector-playing-cards/</dc:source><dc:language>English</dc:language><dc:subject><rdf:Bag><rdf:li>Vectors Playing Card Numbers &amp; Letters</rdf:li></rdf:Bag></dc:subject></cc:Work><cc:License
         rdf:about="http://creativecommons.org/licenses/by-sa/4.0/"><cc:permits
           rdf:resource="http://creativecommons.org/ns#Reproduction" /><cc:permits
           rdf:resource="http://creativecommons.org/ns#Distribution" /><cc:requires
           rdf:resource="http://creativecommons.org/ns#Notice" /><cc:requires
           rdf:resource="http://creativecommons.org/ns#Attribution" /><cc:permits
           rdf:resource="http://creativecommons.org/ns#DerivativeWorks" /><cc:requires
           rdf:resource="http://creativecommons.org/ns#ShareAlike" /></cc:License></rdf:RDF></metadata><g
     id="g19"
     transform="translate(-146.61972,-108.2073)"><path
       id="path18"
       style="display:inline;opacity:1;fill:#ffffff;fill-opacity:1;stroke:none;stroke-width:1.06727;stroke-miterlimit:4;stroke-dasharray:none;stroke-opacity:1"
       d="m 158.01034,108.2073 c -6.30976,0 -11.39062,5.0733 -11.39062,11.37501 v 309.84766 c 0,6.3017 5.08086,11.375 11.39062,11.375 h 215.33007 c 6.30976,0 11.39062,-5.0733 11.39062,-11.375 V 119.58231 c 0,-6.30171 -5.08086,-11.37501 -11.39062,-11.37501 z m 17.08983,18.89649 h 181.15042 c 5.30816,0 9.58198,4.4964 9.58198,10.08204 v 274.63866 c 0,5.58563 -4.27382,10.08203 -9.58198,10.08203 H 175.10017 c -5.30817,0 -9.58209,-4.4964 -9.58209,-10.08203 V 137.18583 c 0,-5.58564 4.27392,-10.08204 9.58209,-10.08204 z" /><path
       id="path1183"
       d="m 836.882,90.511546 c -9.84107,14.034264 -20.37088,22.110474 -20.54581,33.059554 -0.0587,3.5455 1.85824,9.57166 7.8625,10.72511 3.89547,0.74488 9.25878,-2.40798 9.37078,-8.81335 -0.0171,-1.27526 1.35029,-1.24212 1.33749,0.5053 -0.18347,5.05249 -1.78283,10.935 -4.47083,15.72339 4.29728,0 8.59446,0 12.89174,0 -2.688,-4.78841 -4.28736,-10.6709 -4.47083,-15.72339 -0.0128,-1.74742 1.35456,-1.78056 1.33749,-0.5053 0.112,6.40537 5.47531,9.55823 9.37078,8.81335 6.00427,-1.15345 7.92117,-7.17961 7.86251,-10.72511 -0.17494,-10.94908 -10.70475,-19.02529 -20.54582,-33.059554 z"
       style="display:inline;fill:#ffffff;fill-opacity:1;stroke:none;stroke-width:1.6;stroke-linecap:square;stroke-linejoin:miter;stroke-miterlimit:2;stroke-dasharray:none;stroke-opacity:1"
       transform="matrix(2.2993024,0,0,1.8454736,-1658.5694,60.225339)" /></g></svg>
