<?xml version="1.0" encoding="UTF-8" standalone="no"?>
<svg
   class="card"
   face="1B"
   height="3.5in"
   preserveAspectRatio="none"
   viewBox="-120 -168 240 336"
   width="2.5in"
   version="1.1"
   id="svg2"
   sodipodi:docname="placeholder_spades.svg"
   inkscape:version="1.3.2 (091e20e, 2023-11-25, custom)"
   xmlns:inkscape="http://www.inkscape.org/namespaces/inkscape"
   xmlns:sodipodi="http://sodipodi.sourceforge.net/DTD/sodipodi-0.dtd"
   xmlns="http://www.w3.org/2000/svg"
   xmlns:svg="http://www.w3.org/2000/svg">
  <sodipodi:namedview
     id="namedview2"
     pagecolor="#505050"
     bordercolor="#ffffff"
     borderopacity="1"
     inkscape:showpageshadow="false"
     inkscape:pageopacity="0"
     inkscape:pagecheckerboard="1"
     inkscape:deskcolor="#505050"
     inkscape:document-units="in"
     inkscape:zoom="2.4910714"
     inkscape:cx="71.856631"
     inkscape:cy="186.46595"
     inkscape:current-layer="svg2" />
  <defs
     id="defs1">
    <pattern
       id="B1"
       width="6"
       height="6"
       patternUnits="userSpaceOnUse">
      <path
         d="M3 0L6 3L3 6L0 3Z"
         fill="black"
         id="path1" />
    </pattern>
  </defs>
  <rect
     width="230.39999"
     height="326.39999"
     x="-115.2"
     y="-163.2"
     rx="12"
     ry="12"
     fill="white"
     stroke="#000000"
     id="rect1"
     style="fill:none;stroke:#ffffff;stroke-width:9.6;stroke-dasharray:none;stroke-opacity:1" />
  <g
     id="use2-3"
     transform="scale(0.0624)"
     style="fill:#ffffff;fill-opacity:1">
    <path
       d="m 0,-500 c 100,250 355,400 355,685 a 150,150 0 0 1 -300,0 10,10 0 0 0 -20,0 c 0,200 50,215 95,315 h -260 c 45,-100 95,-115 95,-315 a 10,10 0 0 0 -20,0 150,150 0 0 1 -300,0 c 0,-285 255,-435 355,-685 z"
       fill="#000000"
       id="path7"
       style="fill:#ffffff;fill-opacity:1" />
  </g>
</svg>
